<svg id="Layer_1" data-name="Layer 1" xmlns="http://www.w3.org/2000/svg" xmlns:xlink="http://www.w3.org/1999/xlink" viewBox="0 0 518.29 131.29"><defs><style>.cls-1,.cls-62{fill:none;}.cls-2{fill:#fff;}.cls-3{fill:#dbdbdb;}.cls-4{fill:#d0cece;}.cls-5{fill:#c6e0b4;}.cls-6{fill:#e2efda;}.cls-7{fill:#b4c6e7;}.cls-8{fill:#d9e1f2;}.cls-9{fill:#f2f2f2;}.cls-10{clip-path:url(#clip-path);}.cls-11{font-size:8px;}.cls-11,.cls-14,.cls-20,.cls-41{font-family:Arial-BoldMT, Arial;font-weight:700;}.cls-12{letter-spacing:0em;}.cls-13{clip-path:url(#clip-path-2);}.cls-14,.cls-23{font-size:10px;}.cls-15{letter-spacing:-0.01em;}.cls-16{clip-path:url(#clip-path-3);}.cls-17{clip-path:url(#clip-path-4);}.cls-18{letter-spacing:-0.01em;}.cls-19{clip-path:url(#clip-path-5);}.cls-20{font-size:12px;}.cls-21{letter-spacing:0.01em;}.cls-22{letter-spacing:0em;}.cls-23{font-family:ArialMT, Arial;}.cls-24{letter-spacing:0em;}.cls-25{letter-spacing:0.06em;}.cls-26{letter-spacing:0em;}.cls-27{letter-spacing:0.01em;}.cls-28{clip-path:url(#clip-path-6);}.cls-29{letter-spacing:0em;}.cls-30{letter-spacing:0em;}.cls-31{letter-spacing:0em;}.cls-32{clip-path:url(#clip-path-7);}.cls-33{letter-spacing:0.01em;}.cls-34{letter-spacing:0em;}.cls-35{letter-spacing:0em;}.cls-36{letter-spacing:0.02em;}.cls-37{letter-spacing:0em;}.cls-38{letter-spacing:0em;}.cls-39{letter-spacing:0em;}.cls-40{letter-spacing:0em;}.cls-41{font-size:14px;}.cls-42{letter-spacing:-0.01em;}.cls-43{letter-spacing:0em;}.cls-44{letter-spacing:0em;}.cls-45{letter-spacing:0em;}.cls-46{clip-path:url(#clip-path-8);}.cls-47{letter-spacing:0em;}.cls-48{letter-spacing:0em;}.cls-49{clip-path:url(#clip-path-9);}.cls-50{clip-path:url(#clip-path-10);}.cls-51{letter-spacing:0em;}.cls-52{letter-spacing:0em;}.cls-53{letter-spacing:0em;}.cls-54{letter-spacing:0em;}.cls-55{clip-path:url(#clip-path-11);}.cls-56{letter-spacing:0.01em;}.cls-57{letter-spacing:0em;}.cls-58{letter-spacing:0em;}.cls-59{letter-spacing:-0.01em;}.cls-60{clip-path:url(#clip-path-12);}.cls-61{letter-spacing:-0.02em;}.cls-62{stroke:#000;stroke-linecap:square;stroke-miterlimit:10;stroke-width:0;}</style><clipPath id="clip-path" transform="translate(-59.29 -66.71)"><rect class="cls-1" x="60.86" y="83.43" width="516.29" height="11.14"/></clipPath><clipPath id="clip-path-2" transform="translate(-59.29 -66.71)"><rect class="cls-1" x="150" y="95.57" width="27.71" height="13"/></clipPath><clipPath id="clip-path-3" transform="translate(-59.29 -66.71)"><rect class="cls-1" x="178.71" y="95.57" width="27.71" height="13"/></clipPath><clipPath id="clip-path-4" transform="translate(-59.29 -66.71)"><rect class="cls-1" x="300.43" y="95.57" width="27.71" height="13"/></clipPath><clipPath id="clip-path-5" transform="translate(-59.29 -66.71)"><rect class="cls-1" x="60.86" y="109.57" width="516.29" height="14.14"/></clipPath><clipPath id="clip-path-6" transform="translate(-59.29 -66.71)"><rect class="cls-1" x="60.86" y="154.29" width="516.29" height="12.71"/></clipPath><clipPath id="clip-path-7" transform="translate(-59.29 -66.71)"><rect class="cls-1" x="149.57" y="153.86" width="210" height="13.57"/></clipPath><clipPath id="clip-path-8" transform="translate(-59.29 -66.71)"><rect class="cls-1" x="149.57" y="68.29" width="210" height="14.57"/></clipPath><clipPath id="clip-path-9" transform="translate(-59.29 -66.71)"><rect class="cls-1" x="149.57" y="109.14" width="210" height="15"/></clipPath><clipPath id="clip-path-10" transform="translate(-59.29 -66.71)"><rect class="cls-1" x="359.71" y="68.29" width="216.86" height="14.57"/></clipPath><clipPath id="clip-path-11" transform="translate(-59.29 -66.71)"><rect class="cls-1" x="359.71" y="109.14" width="216.86" height="15"/></clipPath><clipPath id="clip-path-12" transform="translate(-59.29 -66.71)"><rect class="cls-1" x="359.71" y="153.86" width="216.86" height="13.57"/></clipPath></defs><rect class="cls-2" x="1.57" y="1.57" width="515.86" height="26.86"/><rect class="cls-2" x="1.57" y="28.29" width="88.71" height="14.14"/><rect class="cls-3" x="90.14" y="28.29" width="28.86" height="14.14"/><rect class="cls-4" x="118.86" y="28.29" width="28.86" height="14.14"/><rect class="cls-3" x="147.57" y="28.29" width="31.14" height="14.14"/><rect class="cls-4" x="178.57" y="28.29" width="31.14" height="14.14"/><rect class="cls-3" x="209.57" y="28.29" width="31.14" height="14.14"/><rect class="cls-4" x="240.57" y="28.29" width="28.86" height="14.14"/><rect class="cls-3" x="269.29" y="28.29" width="62.14" height="14.14"/><rect class="cls-4" x="331.29" y="28.29" width="31.14" height="14.14"/><rect class="cls-3" x="362.29" y="28.29" width="31.14" height="14.14"/><rect class="cls-4" x="393.29" y="28.29" width="31.14" height="14.14"/><rect class="cls-3" x="424.29" y="28.29" width="31.14" height="14.14"/><rect class="cls-4" x="455.28" y="28.29" width="31.14" height="14.14"/><rect class="cls-3" x="486.28" y="28.29" width="31.14" height="14.14"/><rect class="cls-2" x="1.57" y="42.29" width="515.86" height="15.29"/><rect class="cls-2" x="1.57" y="57.43" width="88.71" height="29.71"/><rect class="cls-5" x="90.14" y="57.43" width="28.86" height="29.71"/><rect class="cls-6" x="118.86" y="57.43" width="28.86" height="29.71"/><rect class="cls-5" x="147.57" y="57.43" width="31.14" height="29.71"/><rect class="cls-6" x="178.57" y="57.43" width="31.14" height="29.71"/><rect class="cls-5" x="209.57" y="57.43" width="31.14" height="29.71"/><rect class="cls-6" x="240.57" y="57.43" width="28.86" height="29.71"/><rect class="cls-5" x="269.29" y="57.43" width="31.14" height="29.71"/><rect class="cls-7" x="300.29" y="57.43" width="31.14" height="29.71"/><rect class="cls-8" x="331.29" y="57.43" width="31.14" height="29.71"/><rect class="cls-7" x="362.29" y="57.43" width="31.14" height="29.71"/><rect class="cls-8" x="393.29" y="57.43" width="31.14" height="29.71"/><rect class="cls-7" x="424.29" y="57.43" width="31.14" height="29.71"/><rect class="cls-8" x="455.28" y="57.43" width="31.14" height="29.71"/><rect class="cls-7" x="486.28" y="57.43" width="31.14" height="29.71"/><rect class="cls-2" x="1.57" y="87" width="515.86" height="13.86"/><rect class="cls-2" x="1.57" y="100.72" width="88.71" height="14.57"/><rect class="cls-5" x="90.14" y="100.72" width="28.86" height="14.57"/><rect class="cls-6" x="118.86" y="100.72" width="28.86" height="14.57"/><rect class="cls-5" x="147.57" y="100.72" width="31.14" height="14.57"/><rect class="cls-6" x="178.57" y="100.72" width="31.14" height="14.57"/><rect class="cls-5" x="209.57" y="100.72" width="31.14" height="14.57"/><rect class="cls-6" x="240.57" y="100.72" width="28.86" height="14.57"/><rect class="cls-5" x="269.29" y="100.72" width="31.14" height="14.57"/><rect class="cls-9" x="300.29" y="100.72" width="217.14" height="14.57"/><rect class="cls-2" x="1.57" y="115.14" width="88.71" height="15.29"/><rect class="cls-5" x="90.14" y="115.14" width="28.86" height="15.29"/><rect class="cls-6" x="118.86" y="115.14" width="28.86" height="15.29"/><rect class="cls-5" x="147.57" y="115.14" width="31.14" height="15.29"/><rect class="cls-6" x="178.57" y="115.14" width="31.14" height="15.29"/><rect class="cls-5" x="209.57" y="115.14" width="31.14" height="15.29"/><rect class="cls-6" x="240.57" y="115.14" width="28.86" height="15.29"/><rect class="cls-5" x="269.29" y="115.14" width="62.14" height="15.29"/><rect class="cls-6" x="331.29" y="115.14" width="31.14" height="15.29"/><rect class="cls-5" x="362.29" y="115.14" width="31.14" height="15.29"/><rect class="cls-6" x="393.29" y="115.14" width="31.14" height="15.29"/><rect class="cls-5" x="424.29" y="115.14" width="31.14" height="15.29"/><rect class="cls-6" x="455.28" y="115.14" width="31.14" height="15.29"/><rect class="cls-5" x="486.28" y="115.14" width="31.14" height="15.29"/><g class="cls-10"><text class="cls-11" transform="translate(102.86 25.43)">1</text><text class="cls-11" transform="translate(131.57 25.43)">2</text><text class="cls-11" transform="translate(161.43 25.43)">3</text><text class="cls-11" transform="translate(192.43 25.43)">4</text><text class="cls-11" transform="translate(223.43 25.43)">5</text><text class="cls-11" transform="translate(253.29 25.43)">6</text><text class="cls-11" transform="translate(283.14 25.43)">7</text><text class="cls-11" transform="translate(314.14 25.43)">8</text><text class="cls-11" transform="translate(345.14 25.43)">9</text><text class="cls-11" transform="translate(373.86 25.43)"><tspan class="cls-12">1</tspan><tspan x="4.43" y="0">0</tspan></text><text class="cls-11" transform="translate(404.86 25.43)"><tspan class="cls-12">1</tspan><tspan x="4.43" y="0">1</tspan></text><text class="cls-11" transform="translate(435.86 25.43)"><tspan class="cls-12">1</tspan><tspan x="4.43" y="0">2</tspan></text><text class="cls-11" transform="translate(466.86 25.43)"><tspan class="cls-12">1</tspan><tspan x="4.43" y="0">3</tspan></text><text class="cls-11" transform="translate(497.86 25.43)"><tspan class="cls-12">1</tspan><tspan x="4.43" y="0">4</tspan></text></g><g class="cls-13"><text class="cls-14" transform="translate(91.14 38.43)">05<tspan class="cls-15" x="11.12" y="0">.</tspan><tspan x="13.84" y="0">10.</tspan></text></g><g class="cls-16"><text class="cls-14" transform="translate(119.86 38.43)">12<tspan class="cls-15" x="11.12" y="0">.</tspan><tspan x="13.84" y="0">10.</tspan></text></g><text class="cls-14" transform="translate(149.71 38.43)">19<tspan class="cls-15" x="11.12" y="0">.</tspan><tspan x="13.84" y="0">10.</tspan></text><text class="cls-14" transform="translate(180.71 38.43)">26<tspan class="cls-15" x="11.12" y="0">.</tspan><tspan x="13.84" y="0">10.</tspan></text><text class="cls-14" transform="translate(211.71 38.43)">02<tspan class="cls-15" x="11.12" y="0">.</tspan><tspan x="13.84" y="0">11.</tspan></text><g class="cls-17"><text class="cls-14" transform="translate(241.57 38.43)">09<tspan class="cls-15" x="11.12" y="0">.</tspan><tspan x="13.84" y="0">11.</tspan></text></g><text class="cls-14" transform="translate(271.43 38.43)">16<tspan class="cls-15" x="11.12" y="0">.</tspan><tspan x="13.84" y="0">11.</tspan></text><text class="cls-14" transform="translate(302.43 38.43)">23<tspan class="cls-18" x="11.12" y="0">.</tspan><tspan x="13.84" y="0">11.</tspan></text><text class="cls-14" transform="translate(333.43 38.43)">30<tspan class="cls-18" x="11.12" y="0">.</tspan><tspan x="13.84" y="0">11.</tspan></text><text class="cls-14" transform="translate(364.43 38.43)">07<tspan class="cls-18" x="11.12" y="0">.</tspan><tspan x="13.84" y="0">12.</tspan></text><text class="cls-14" transform="translate(395.43 38.43)">14<tspan class="cls-18" x="11.12" y="0">.</tspan><tspan x="13.84" y="0">12.</tspan></text><text class="cls-14" transform="translate(426.43 38.43)">21<tspan class="cls-18" x="11.12" y="0">.</tspan><tspan x="13.84" y="0">12.</tspan></text><text class="cls-14" transform="translate(457.43 38.43)">11<tspan class="cls-18" x="11.12" y="0">.</tspan><tspan x="13.84" y="0">01.</tspan></text><text class="cls-14" transform="translate(488.43 38.43)">18<tspan class="cls-18" x="11.12" y="0">.</tspan><tspan x="13.84" y="0">01.</tspan></text><g class="cls-19"><text class="cls-20" transform="translate(35 53.86)"><tspan class="cls-21">M</tspan><tspan class="cls-22" x="10.14" y="0">I</tspan><tspan x="13.44" y="0">B</tspan></text></g><text class="cls-23" transform="translate(3 69)">2<tspan class="cls-15" x="5.56" y="0"> </tspan><tspan class="cls-24" x="8.28" y="0">S</tspan><tspan class="cls-25" x="14.99" y="0">W</tspan><tspan class="cls-24" x="24.99" y="0">S</tspan><tspan class="cls-15" x="31.7" y="0"> </tspan><tspan class="cls-24" x="34.42" y="0">V</tspan><tspan x="41.13" y="0">o</tspan><tspan class="cls-26" x="46.69" y="0">r</tspan><tspan class="cls-27" x="49.98" y="0">l</tspan><tspan x="52.26" y="0">esung</tspan></text><text class="cls-23" transform="translate(3 83.14)">2<tspan class="cls-15" x="5.56" y="0"> </tspan><tspan class="cls-24" x="8.28" y="0">S</tspan><tspan class="cls-25" x="14.99" y="0">W</tspan><tspan class="cls-24" x="24.99" y="0">S</tspan><tspan class="cls-15" x="31.7" y="0"> </tspan><tspan class="cls-27" x="34.42" y="0">Ü</tspan><tspan x="41.7" y="0">bung</tspan></text><g class="cls-28"><text class="cls-20" transform="translate(10.57 97.14)"><tspan class="cls-29">O</tspan><tspan class="cls-21" x="9.29" y="0">M</tspan><tspan class="cls-30" x="19.43" y="0">B</tspan><tspan class="cls-31" x="28.13" y="0"> </tspan><tspan class="cls-30" x="31.43" y="0">&amp;</tspan><tspan class="cls-31" x="40.13" y="0"> </tspan><tspan class="cls-21" x="43.43" y="0">M</tspan><tspan class="cls-30" x="53.57" y="0">K</tspan><tspan x="62.27" y="0">B</tspan></text></g><text class="cls-23" transform="translate(3 112.29)">1<tspan class="cls-15" x="5.56" y="0"> </tspan><tspan class="cls-24" x="8.28" y="0">S</tspan><tspan class="cls-25" x="14.99" y="0">W</tspan><tspan class="cls-24" x="24.99" y="0">S</tspan><tspan class="cls-15" x="31.7" y="0"> </tspan><tspan class="cls-24" x="34.42" y="0">V</tspan><tspan x="41.13" y="0">o</tspan><tspan class="cls-26" x="46.69" y="0">r</tspan><tspan class="cls-27" x="49.98" y="0">l</tspan><tspan x="52.26" y="0">esung</tspan></text><text class="cls-23" transform="translate(3 126.43)">2<tspan class="cls-15" x="5.56" y="0"> </tspan><tspan class="cls-24" x="8.28" y="0">S</tspan><tspan class="cls-25" x="14.99" y="0">W</tspan><tspan class="cls-24" x="24.99" y="0">S</tspan><tspan class="cls-15" x="31.7" y="0"> </tspan><tspan class="cls-27" x="34.42" y="0">Ü</tspan><tspan x="41.7" y="0">bung</tspan></text><g class="cls-32"><text class="cls-14" transform="translate(131.57 97.14)"><tspan class="cls-33">M</tspan><tspan class="cls-34" x="8.42" y="0">od</tspan><tspan x="20.7" y="0">e</tspan><tspan class="cls-15" x="26.26" y="0">lli</tspan><tspan class="cls-35" x="34.41" y="0">ng</tspan><tspan class="cls-18" x="46.69" y="0"> </tspan><tspan class="cls-36" x="49.41" y="0">T</tspan><tspan class="cls-35" x="55.69" y="0">h</tspan><tspan class="cls-37" x="61.83" y="0">e</tspan><tspan class="cls-35" x="67.4" y="0">o</tspan><tspan class="cls-38" x="73.54" y="0">r</tspan><tspan class="cls-15" x="77.4" y="0">i</tspan><tspan x="80.12" y="0">e</tspan><tspan class="cls-15" x="85.68" y="0"> </tspan><tspan class="cls-27" x="88.4" y="0">&amp;</tspan><tspan class="cls-15" x="95.68" y="0"> </tspan><tspan class="cls-24" x="98.4" y="0">P</tspan><tspan class="cls-39" x="105.1" y="0">r</tspan><tspan x="108.97" y="0">ax</tspan><tspan class="cls-15" x="120.09" y="0">i</tspan><tspan class="cls-40" x="122.81" y="0">s</tspan></text></g><text class="cls-41" transform="translate(15.43 26.29)"><tspan class="cls-42">W</tspan><tspan class="cls-43" x="13" y="0">S</tspan><tspan class="cls-44" x="22.3" y="0"> </tspan><tspan class="cls-45" x="26.16" y="0">20</tspan><tspan class="cls-44" x="41.85" y="0">/</tspan><tspan class="cls-45" x="45.71" y="0">2</tspan><tspan x="53.55" y="0">1</tspan></text><g class="cls-46"><text class="cls-20" transform="translate(146 12.57)"><tspan class="cls-47">1</tspan><tspan class="cls-29" x="6.7" y="0">.</tspan><tspan class="cls-22" x="9.98" y="0"> </tspan><tspan x="13.28" y="0">S</tspan><tspan class="cls-47" x="21.29" y="0">e</tspan><tspan class="cls-48" x="27.98" y="0">m</tspan><tspan class="cls-47" x="38.69" y="0">es</tspan><tspan x="52.08" y="0">t</tspan><tspan class="cls-47" x="56.08" y="0">e</tspan><tspan class="cls-48" x="62.78" y="0">r</tspan><tspan class="cls-22" x="67.48" y="0">h</tspan><tspan class="cls-48" x="74.78" y="0">ä</tspan><tspan class="cls-29" x="81.49" y="0">l</tspan><tspan x="84.77" y="0">fte</tspan></text></g><g class="cls-49"><text class="cls-14" transform="translate(131.57 53.86)"><tspan class="cls-33">M</tspan><tspan class="cls-34" x="8.42" y="0">od</tspan><tspan x="20.7" y="0">e</tspan><tspan class="cls-15" x="26.26" y="0">lli</tspan><tspan class="cls-35" x="34.41" y="0">ng</tspan><tspan class="cls-18" x="46.69" y="0"> </tspan><tspan class="cls-36" x="49.41" y="0">T</tspan><tspan class="cls-35" x="55.69" y="0">h</tspan><tspan class="cls-37" x="61.83" y="0">e</tspan><tspan class="cls-35" x="67.4" y="0">o</tspan><tspan class="cls-38" x="73.54" y="0">r</tspan><tspan class="cls-15" x="77.4" y="0">i</tspan><tspan x="80.12" y="0">e</tspan><tspan class="cls-15" x="85.68" y="0"> </tspan><tspan class="cls-27" x="88.4" y="0">&amp;</tspan><tspan class="cls-15" x="95.68" y="0"> </tspan><tspan class="cls-24" x="98.4" y="0">P</tspan><tspan class="cls-39" x="105.1" y="0">r</tspan><tspan x="108.97" y="0">ax</tspan><tspan class="cls-15" x="120.09" y="0">i</tspan><tspan class="cls-40" x="122.81" y="0">s</tspan></text></g><g class="cls-50"><text class="cls-20" transform="translate(359.57 12.57)"><tspan class="cls-51">2</tspan><tspan class="cls-52" x="6.7" y="0">.</tspan><tspan class="cls-53" x="9.98" y="0"> </tspan><tspan x="13.28" y="0">S</tspan><tspan class="cls-54" x="21.29" y="0">e</tspan><tspan class="cls-48" x="27.98" y="0">m</tspan><tspan class="cls-51" x="38.69" y="0">es</tspan><tspan x="52.08" y="0">t</tspan><tspan class="cls-51" x="56.08" y="0">e</tspan><tspan class="cls-48" x="62.78" y="0">r</tspan><tspan class="cls-22" x="67.49" y="0">h</tspan><tspan class="cls-48" x="74.78" y="0">ä</tspan><tspan class="cls-52" x="81.49" y="0">l</tspan><tspan x="84.77" y="0">fte</tspan></text></g><g class="cls-55"><text class="cls-14" transform="translate(340.14 53.86)">3<tspan class="cls-56" x="5.56" y="0">D</tspan><tspan class="cls-26" x="12.84" y="0">-</tspan><tspan class="cls-24" x="16.13" y="0">E</tspan><tspan class="cls-57" x="22.84" y="0">c</tspan><tspan class="cls-58" x="28.42" y="0">h</tspan><tspan class="cls-26" x="34.55" y="0">t</tspan><tspan x="37.84" y="0">ze</tspan><tspan class="cls-18" x="48.4" y="0">i</tspan><tspan class="cls-26" x="51.12" y="0">t-</tspan><tspan class="cls-24" x="57.7" y="0">P</tspan><tspan class="cls-39" x="64.41" y="0">r</tspan><tspan class="cls-34" x="68.27" y="0">og</tspan><tspan class="cls-39" x="80.55" y="0">r</tspan><tspan x="84.41" y="0">a</tspan><tspan class="cls-39" x="89.97" y="0">mm</tspan><tspan class="cls-59" x="107.7" y="0">i</tspan><tspan x="110.42" y="0">e</tspan><tspan class="cls-39" x="115.98" y="0">r</tspan><tspan class="cls-34" x="119.84" y="0">un</tspan><tspan x="132.12" y="0">g</tspan></text></g><g class="cls-60"><text class="cls-14" transform="translate(349.14 97.14)"><tspan class="cls-24">P</tspan><tspan class="cls-39" x="6.71" y="0">r</tspan><tspan class="cls-34" x="10.57" y="0">odu</tspan><tspan x="28.99" y="0">k</tspan><tspan class="cls-26" x="34.55" y="0">t</tspan><tspan class="cls-18" x="37.84" y="0">i</tspan><tspan class="cls-34" x="40.56" y="0">on</tspan><tspan class="cls-18" x="52.83" y="0"> </tspan><tspan x="55.55" y="0">3</tspan><tspan class="cls-56" x="61.11" y="0">D</tspan><tspan class="cls-26" x="68.39" y="0">-</tspan><tspan class="cls-61" x="71.68" y="0">A</tspan><tspan class="cls-34" x="78.69" y="0">n</tspan><tspan class="cls-59" x="84.83" y="0">i</tspan><tspan class="cls-53" x="87.54" y="0">m</tspan><tspan x="96.41" y="0">a</tspan><tspan class="cls-26" x="101.97" y="0">t</tspan><tspan class="cls-59" x="105.26" y="0">i</tspan><tspan class="cls-34" x="107.97" y="0">o</tspan><tspan x="114.11" y="0">n</tspan></text></g><rect x="91.14" y="15.72" width="208.14" height="1"/><rect x="91.14" y="27.86" width="208.14" height="1"/><rect width="2" height="131.29"/><rect x="89.14" y="2" width="2" height="129.29"/><rect x="299.29" y="2" width="2" height="129.29"/><rect x="516.28" y="2" width="2" height="129.29"/><rect x="118.43" y="16.72" width="1" height="12.14"/><rect x="147.14" y="16.72" width="1" height="12.14"/><line class="cls-62" x1="178.14" y1="16.72" x2="178.14" y2="28.86"/><rect x="178.14" y="16.72" width="1" height="12.14"/><rect x="209.14" y="16.72" width="1" height="12.14"/><rect x="240.14" y="16.72" width="1" height="12.14"/><rect x="268.86" y="16.72" width="1" height="12.14"/><rect x="330.86" y="16.72" width="1" height="12.14"/><line class="cls-62" x1="361.86" y1="16.72" x2="361.86" y2="28.86"/><rect x="361.86" y="16.72" width="1" height="12.14"/><rect x="392.86" y="16.72" width="1" height="12.14"/><rect x="423.86" y="16.72" width="1" height="12.14"/><rect x="454.86" y="16.72" width="1" height="12.14"/><rect x="485.86" y="16.72" width="1" height="12.14"/><rect x="2" width="516.29" height="2"/><rect x="301.29" y="15.72" width="215" height="1"/><rect x="301.29" y="27.86" width="215" height="1"/><rect x="2" y="41.29" width="516.29" height="2"/><rect x="2" y="86" width="516.29" height="2"/><rect x="2" y="129.29" width="516.29" height="2"/></svg>